<svg width="512" height="512" viewBox="0 0 512 512" fill="none" xmlns="http://www.w3.org/2000/svg">
  <!-- Modern/Playful: Vibrant Indigo Background with Rounded Corners -->
  <rect width="512" height="512" rx="128" fill="#4F46E5"/>
  
  <!-- Subtle Gradient Overlay -->
  <rect width="512" height="512" rx="128" fill="url(#paint0_linear)" fill-opacity="0.2"/>
  
  <!-- Stylized Speech Bubble + Microphone -->
  <path d="M128 160C128 124.654 156.654 96 192 96H320C355.346 96 384 124.654 384 160V320C384 355.346 355.346 384 320 384H192C156.654 384 128 355.346 128 320V160Z" fill="white"/>
  
  <!-- Microphone Detail -->
  <rect x="236" y="160" width="40" height="120" rx="20" fill="#4F46E5"/>
  <path d="M216 220C216 242.091 233.909 260 256 260C278.091 260 296 242.091 296 220" stroke="#4F46E5" stroke-width="12" stroke-linecap="round"/>
  <path d="M256 260V290" stroke="#4F46E5" stroke-width="12" stroke-linecap="round"/>
  <path d="M236 290H276" stroke="#4F46E5" stroke-width="12" stroke-linecap="round"/>
  
  <!-- Playful Accent: Small Green Progress Dot -->
  <circle cx="384" cy="128" r="32" fill="#22C55E" stroke="#4F46E5" stroke-width="8"/>

  <defs>
    <linearGradient id="paint0_linear" x1="0" y1="0" x2="512" y2="512" gradientUnits="userSpaceOnUse">
      <stop stop-color="white"/>
      <stop offset="1" stop-color="black"/>
    </linearGradient>
  </defs>
</svg>
